# This file uses centimeters as units for non-parametric coordinates.

mtllib medkit.mtl
g default
v 1.000000 0.314657 0.434516
v 0.800020 0.114677 0.434516
v 1.000000 0.314657 -0.434516
v 0.800020 0.114677 -0.434516
v -0.800020 0.114677 0.434516
v -1.000000 0.314657 0.434516
v -1.000000 0.314657 -0.434516
v -0.800020 0.114677 -0.434516
v -1.000000 1.914697 0.434516
v -0.800020 2.114677 0.434516
v -0.800020 2.114677 -0.434516
v -1.000000 1.914697 -0.434516
v 0.800020 2.114677 0.434516
v 1.000000 1.914697 0.434516
v 1.000000 1.914697 -0.434516
v 0.800020 2.114677 -0.434516
v 0.851102 0.433779 0.550421
v 0.680898 0.263576 0.550421
v 0.851102 1.795576 0.550421
v 0.680898 1.965779 0.550421
v -0.680898 1.965779 0.550421
v -0.851102 1.795576 0.550421
v -0.851102 0.433779 0.550421
v -0.680898 0.263576 0.550421
v 0.680898 0.263576 -0.550420
v 0.851102 0.433779 -0.550420
v -0.680898 0.263576 -0.550420
v -0.851102 0.433779 -0.550420
v -0.851102 1.795576 -0.550420
v -0.680898 1.965779 -0.550420
v 0.680898 1.965779 -0.550420
v 0.851102 1.795576 -0.550420
v -0.800020 2.114677 0.221379
v 0.800020 2.114677 0.221379
v 1.000000 1.914697 0.221379
v 1.000000 0.314657 0.221379
v 0.800020 0.114677 0.221379
v -0.800020 0.114677 0.221379
v -1.000000 0.314657 0.221379
v -1.000000 1.914697 0.221379
v -0.800020 2.114677 0.086930
v 0.800020 2.114677 0.086930
v 1.000000 1.914697 0.086930
v 1.000000 0.314657 0.086930
v 0.800020 0.114677 0.086930
v -0.800020 0.114677 0.086930
v -1.000000 0.314657 0.086930
v -1.000000 1.914697 0.086930
v -0.769846 2.076961 0.103577
v -0.769846 2.076961 0.204731
v 0.769846 2.076961 0.204731
v 0.769846 2.076961 0.103577
v 0.962283 1.884523 0.204731
v 0.962283 1.884523 0.103577
v 0.962283 0.344831 0.103577
v 0.962283 0.344831 0.204731
v 0.769846 0.152394 0.204731
v 0.769846 0.152394 0.103577
v -0.769846 0.152394 0.103577
v -0.769846 0.152394 0.204731
v -0.962283 0.344831 0.204731
v -0.962283 0.344831 0.103577
v -0.962283 1.884523 0.103577
v -0.962283 1.884523 0.204731
vt 0.673473 0.471316
vt 0.797269 0.471313
vt 0.797326 0.622847
vt 0.673529 0.622851
vt 0.673536 0.647699
vt 0.797333 0.647696
vt 0.797333 0.799232
vt 0.673536 0.799229
vt 0.673529 0.824077
vt 0.797269 0.270083
vt 0.673472 0.270079
vt 0.673465 0.294928
vt 0.797262 0.294931
vt 0.797262 0.446464
vt 0.673465 0.446467
vt 0.364372 0.603310
vt 0.399733 0.638671
vt 0.399733 0.921598
vt 0.364372 0.956959
vt 0.081445 0.956959
vt 0.046084 0.921598
vt 0.046084 0.638671
vt 0.081445 0.603310
vt 0.046083 0.205517
vt 0.081445 0.170156
vt 0.364371 0.170156
vt 0.399733 0.205517
vt 0.399733 0.488444
vt 0.364371 0.523805
vt 0.081445 0.523805
vt 0.046083 0.488444
vt 0.888834 0.824081
vt 0.964022 0.824082
vt 0.963965 0.270085
vt 0.888777 0.270084
vt 0.963958 0.294933
vt 0.888771 0.294932
vt 0.888770 0.446464
vt 0.963958 0.446463
vt 0.963965 0.471310
vt 0.888778 0.471312
vt 0.888834 0.622847
vt 0.964021 0.622845
vt 0.964029 0.647694
vt 0.888841 0.647695
vt 0.888841 0.799232
vt 0.964029 0.799234
vt 0.803198 0.824080
vt 0.838881 0.824081
vt 0.882906 0.270084
vt 0.803143 0.270083
vt 0.882899 0.294932
vt 0.803136 0.294931
vt 0.803136 0.446464
vt 0.882899 0.446464
vt 0.882906 0.471312
vt 0.803143 0.471313
vt 0.803198 0.622847
vt 0.882960 0.622846
vt 0.882967 0.647695
vt 0.803204 0.647696
vt 0.803204 0.799232
vt 0.882967 0.799232
vt 0.389120 0.572375
vt 0.430668 0.613922
vt 0.430668 0.946347
vt 0.389120 0.987894
vt 0.056696 0.987894
vt 0.015148 0.946347
vt 0.015148 0.613922
vt 0.056696 0.572375
vt 0.015148 0.180768
vt 0.056696 0.139220
vt 0.389120 0.139220
vt 0.430668 0.180768
vt 0.430668 0.513192
vt 0.389120 0.554740
vt 0.056696 0.554740
vt 0.015148 0.513192
vt 0.797269 0.975615
vt 0.673473 0.975611
vt 0.963965 0.975617
vt 0.882906 0.975615
vt 0.888778 0.975616
vt 0.797326 0.824080
vt 0.803143 0.975615
vt 0.838827 0.270084
vt 0.838827 0.975615
vt 0.838820 0.294932
vt 0.838820 0.446464
vt 0.838827 0.471312
vt 0.838881 0.622846
vt 0.838888 0.647695
vt 0.882960 0.824081
vt 0.838888 0.799232
vn 0.000000 -1.000000 0.000000
vn 0.000000 -1.000000 0.000000
vn 0.000000 -1.000000 0.000000
vn 0.000000 -1.000000 0.000000
vn -1.000000 0.000000 0.000000
vn -1.000000 0.000000 0.000000
vn -1.000000 0.000000 0.000000
vn -1.000000 0.000000 0.000000
vn 0.000000 1.000000 0.000000
vn 0.000000 1.000000 0.000000
vn 0.000000 1.000000 0.000000
vn 0.000000 1.000000 0.000000
vn 1.000000 0.000000 0.000000
vn 1.000000 0.000000 0.000000
vn 1.000000 0.000000 0.000000
vn 1.000000 0.000000 0.000000
vn -0.000000 0.000000 1.000000
vn -0.000000 0.000000 1.000000
vn -0.000000 0.000000 1.000000
vn -0.000000 0.000000 1.000000
vn -0.000000 0.000000 1.000000
vn -0.000000 0.000000 1.000000
vn -0.000000 0.000000 1.000000
vn -0.000000 0.000000 1.000000
vn 0.000000 0.000000 -1.000000
vn 0.000000 0.000000 -1.000000
vn 0.000000 0.000000 -1.000000
vn 0.000000 0.000000 -1.000000
vn 0.000000 0.000000 -1.000000
vn 0.000000 0.000000 -1.000000
vn 0.000000 0.000000 -1.000000
vn 0.000000 0.000000 -1.000000
vn 0.707107 -0.707107 0.000000
vn 0.707107 -0.707107 0.000000
vn 0.707107 -0.707107 0.000000
vn 0.707107 -0.707107 0.000000
vn -0.707107 -0.707107 0.000000
vn -0.707107 -0.707107 0.000000
vn -0.707107 -0.707107 0.000000
vn -0.707107 -0.707107 0.000000
vn -0.707107 0.707107 0.000000
vn -0.707107 0.707107 0.000000
vn -0.707107 0.707107 0.000000
vn -0.707107 0.707107 0.000000
vn 0.707107 0.707107 0.000000
vn 0.707107 0.707107 0.000000
vn 0.707107 0.707107 0.000000
vn 0.707107 0.707107 0.000000
vn 0.368924 -0.368924 0.853107
vn 0.368924 -0.368924 0.853106
vn 0.368924 -0.368924 0.853107
vn 0.368924 -0.368924 0.853106
vn 0.614253 0.000000 0.789109
vn 0.614253 0.000000 0.789109
vn 0.614253 0.000000 0.789109
vn 0.614253 0.000000 0.789109
vn 0.368923 0.368923 0.853107
vn 0.368923 0.368924 0.853107
vn 0.368923 0.368923 0.853107
vn 0.368923 0.368923 0.853107
vn 0.000000 0.614253 0.789109
vn 0.000000 0.614253 0.789109
vn 0.000000 0.614253 0.789109
vn 0.000000 0.614253 0.789109
vn -0.368923 0.368923 0.853107
vn -0.368923 0.368923 0.853107
vn -0.368923 0.368923 0.853107
vn -0.368923 0.368923 0.853107
vn -0.614253 0.000000 0.789109
vn -0.614253 0.000000 0.789109
vn -0.614253 0.000000 0.789109
vn -0.614253 0.000000 0.789109
vn -0.368924 -0.368924 0.853107
vn -0.368924 -0.368924 0.853107
vn -0.368924 -0.368924 0.853107
vn -0.368924 -0.368924 0.853107
vn 0.000000 -0.614253 0.789109
vn 0.000000 -0.614253 0.789109
vn 0.000000 -0.614253 0.789109
vn 0.000000 -0.614253 0.789109
vn 0.368924 -0.368924 -0.853107
vn 0.368924 -0.368924 -0.853107
vn 0.368924 -0.368924 -0.853107
vn 0.368924 -0.368924 -0.853107
vn 0.000000 -0.614253 -0.789109
vn 0.000000 -0.614253 -0.789109
vn 0.000000 -0.614253 -0.789109
vn 0.000000 -0.614253 -0.789109
vn -0.368924 -0.368924 -0.853107
vn -0.368924 -0.368924 -0.853107
vn -0.368924 -0.368924 -0.853106
vn -0.368924 -0.368924 -0.853106
vn -0.614254 0.000000 -0.789109
vn -0.614254 0.000000 -0.789109
vn -0.614254 0.000000 -0.789109
vn -0.614254 0.000000 -0.789109
vn -0.368923 0.368923 -0.853107
vn -0.368923 0.368923 -0.853107
vn -0.368923 0.368923 -0.853107
vn -0.368923 0.368923 -0.853107
vn 0.000000 0.614253 -0.789109
vn 0.000000 0.614253 -0.789109
vn 0.000000 0.614253 -0.789109
vn 0.000000 0.614253 -0.789109
vn 0.368923 0.368923 -0.853107
vn 0.368923 0.368923 -0.853107
vn 0.368923 0.368923 -0.853107
vn 0.368923 0.368923 -0.853107
vn 0.614254 0.000000 -0.789109
vn 0.614254 0.000000 -0.789109
vn 0.614254 0.000000 -0.789109
vn 0.614254 0.000000 -0.789109
vn 0.000000 1.000000 0.000000
vn 0.000000 1.000000 0.000000
vn 0.000000 1.000000 0.000000
vn 0.000000 1.000000 0.000000
vn 0.707107 0.707107 0.000000
vn 0.707107 0.707107 0.000000
vn 0.707107 0.707107 0.000000
vn 0.707107 0.707107 0.000000
vn 1.000000 0.000000 0.000000
vn 1.000000 0.000000 0.000000
vn 1.000000 0.000000 0.000000
vn 1.000000 0.000000 0.000000
vn 0.707107 -0.707107 0.000000
vn 0.707107 -0.707107 0.000000
vn 0.707107 -0.707107 0.000000
vn 0.707107 -0.707107 0.000000
vn 0.000000 -1.000000 0.000000
vn 0.000000 -1.000000 0.000000
vn 0.000000 -1.000000 0.000000
vn 0.000000 -1.000000 0.000000
vn -0.707107 -0.707107 0.000000
vn -0.707107 -0.707107 0.000000
vn -0.707107 -0.707107 0.000000
vn -0.707107 -0.707107 0.000000
vn -1.000000 0.000000 0.000000
vn -1.000000 0.000000 0.000000
vn -1.000000 0.000000 0.000000
vn -1.000000 0.000000 0.000000
vn -0.707107 0.707107 0.000000
vn -0.707107 0.707107 0.000000
vn -0.707107 0.707107 0.000000
vn -0.707107 0.707107 0.000000
vn 0.000000 1.000000 0.000000
vn 0.000000 1.000000 0.000000
vn 0.000000 1.000000 0.000000
vn 0.000000 1.000000 0.000000
vn 0.707107 0.707107 0.000000
vn 0.707107 0.707107 0.000000
vn 0.707107 0.707107 0.000000
vn 0.707107 0.707107 0.000000
vn 1.000000 0.000000 0.000000
vn 1.000000 0.000000 0.000000
vn 1.000000 0.000000 0.000000
vn 1.000000 0.000000 0.000000
vn 0.707107 -0.707107 0.000000
vn 0.707107 -0.707107 0.000000
vn 0.707107 -0.707107 0.000000
vn 0.707107 -0.707107 0.000000
vn 0.000000 -1.000000 0.000000
vn 0.000000 -1.000000 0.000000
vn 0.000000 -1.000000 0.000000
vn 0.000000 -1.000000 0.000000
vn -0.707107 -0.707107 0.000000
vn -0.707107 -0.707107 0.000000
vn -0.707107 -0.707107 0.000000
vn -0.707107 -0.707107 0.000000
vn -1.000000 0.000000 0.000000
vn -1.000000 0.000000 0.000000
vn -1.000000 0.000000 0.000000
vn -1.000000 0.000000 0.000000
vn -0.707107 0.707107 0.000000
vn -0.707107 0.707107 0.000000
vn -0.707107 0.707107 0.000000
vn -0.707107 0.707107 0.000000
vn 0.000000 0.403807 -0.914844
vn 0.000000 0.403807 -0.914844
vn 0.000000 0.403807 -0.914844
vn 0.000000 0.403807 -0.914844
vn 0.000000 0.403808 0.914844
vn 0.000000 0.403808 0.914844
vn 0.000000 0.403808 0.914844
vn 0.000000 0.403808 0.914844
vn 0.231680 0.231680 -0.944801
vn 0.231680 0.231680 -0.944801
vn 0.231680 0.231680 -0.944801
vn 0.231680 0.231680 -0.944801
vn 0.231681 0.231681 0.944801
vn 0.231681 0.231681 0.944801
vn 0.231681 0.231681 0.944801
vn 0.231681 0.231681 0.944801
vn 0.403807 0.000000 0.914844
vn 0.403807 0.000000 0.914844
vn 0.403807 0.000000 0.914844
vn 0.403807 0.000000 0.914844
vn 0.403807 0.000000 -0.914844
vn 0.403807 0.000000 -0.914844
vn 0.403807 0.000000 -0.914844
vn 0.403807 0.000000 -0.914844
vn 0.231681 -0.231681 -0.944801
vn 0.231681 -0.231681 -0.944800
vn 0.231681 -0.231681 -0.944800
vn 0.231681 -0.231681 -0.944800
vn 0.231681 -0.231681 0.944800
vn 0.231681 -0.231681 0.944800
vn 0.231681 -0.231681 0.944800
vn 0.231681 -0.231681 0.944800
vn 0.000000 -0.403808 0.914844
vn 0.000000 -0.403808 0.914844
vn 0.000000 -0.403808 0.914844
vn 0.000000 -0.403808 0.914844
vn 0.000000 -0.403807 -0.914844
vn 0.000000 -0.403807 -0.914844
vn 0.000000 -0.403807 -0.914844
vn 0.000000 -0.403807 -0.914844
vn -0.231681 -0.231681 -0.944801
vn -0.231681 -0.231681 -0.944801
vn -0.231681 -0.231681 -0.944801
vn -0.231681 -0.231681 -0.944801
vn -0.231681 -0.231681 0.944800
vn -0.231681 -0.231681 0.944800
vn -0.231681 -0.231681 0.944800
vn -0.231681 -0.231681 0.944800
vn -0.403807 0.000000 0.914844
vn -0.403807 0.000000 0.914844
vn -0.403807 0.000000 0.914844
vn -0.403807 0.000000 0.914844
vn -0.403807 0.000000 -0.914844
vn -0.403807 0.000000 -0.914844
vn -0.403807 0.000000 -0.914844
vn -0.403807 0.000000 -0.914844
vn -0.231680 0.231680 -0.944801
vn -0.231680 0.231680 -0.944801
vn -0.231680 0.231680 -0.944801
vn -0.231680 0.231680 -0.944801
vn -0.231681 0.231681 0.944801
vn -0.231681 0.231681 0.944801
vn -0.231681 0.231681 0.944801
vn -0.231681 0.231681 0.944801
s off
g medkit_main
usemtl lambert2SG
f 4/1/1 45/2/2 46/3/3 8/4/4
f 7/5/5 47/6/6 48/7/7 12/8/8
f 11/9/9 41/85/10 42/80/11 16/81/12
f 15/12/13 43/13/14 44/14/15 3/15/16
f 18/16/17 17/17/18 19/18/19 20/19/20 21/20/21 22/21/22 23/22/23 24/23/24
f 26/24/25 25/25/26 27/26/27 28/27/28 29/28/29 30/29/30 31/30/31 32/31/32
f 44/14/33 45/2/34 4/1/35 3/15/36
f 46/3/37 47/6/38 7/5/39 8/4/40
f 48/7/41 41/85/42 11/9/43 12/8/44
f 42/10/45 43/13/46 15/12/47 16/11/48
f 2/64/49 1/65/50 17/17/51 18/16/52
f 1/65/53 14/66/54 19/18/55 17/17/56
f 14/66/57 13/67/58 20/19/59 19/18/60
f 13/67/61 10/68/62 21/20/63 20/19/64
f 10/68/65 9/69/66 22/21/67 21/20/68
f 9/69/69 6/70/70 23/22/71 22/21/72
f 6/70/73 5/71/74 24/23/75 23/22/76
f 5/71/77 2/64/78 18/16/79 24/23/80
f 3/72/81 4/73/82 25/25/83 26/24/84
f 4/73/85 8/74/86 27/26/87 25/25/88
f 8/74/89 7/75/90 28/27/91 27/26/92
f 7/75/93 12/76/94 29/28/95 28/27/96
f 12/76/97 11/77/98 30/29/99 29/28/100
f 11/77/101 16/78/102 31/30/103 30/29/104
f 16/78/105 15/79/106 32/31/107 31/30/108
f 15/79/109 3/72/110 26/24/111 32/31/112
f 33/32/113 10/33/114 13/82/115 34/84/116
f 13/34/117 14/36/118 35/37/119 34/35/120
f 36/38/121 35/37/122 14/36/123 1/39/124
f 1/39/125 2/40/126 37/41/127 36/38/128
f 38/42/129 37/41/130 2/40/131 5/43/132
f 5/43/133 6/44/134 39/45/135 38/42/136
f 40/46/137 39/45/138 6/44/139 9/47/140
f 9/47/141 10/33/142 33/32/143 40/46/144
f 49/48/145 50/49/146 51/88/147 52/86/148
f 51/87/149 53/89/150 54/53/151 52/51/152
f 55/54/153 54/53/154 53/89/155 56/90/156
f 56/90/157 57/91/158 58/57/159 55/54/160
f 59/58/161 58/57/162 57/91/163 60/92/164
f 60/92/165 61/93/166 62/61/167 59/58/168
f 63/62/169 62/61/170 61/93/171 64/95/172
f 64/95/173 50/49/174 49/48/175 63/62/176
f 33/32/177 34/84/178 51/83/179 50/94/180
f 42/80/181 41/85/182 49/48/183 52/86/184
f 34/35/185 35/37/186 53/52/187 51/50/188
f 43/13/189 42/10/190 52/51/191 54/53/192
f 44/14/193 43/13/194 54/53/195 55/54/196
f 35/37/197 36/38/198 56/55/199 53/52/200
f 36/38/201 37/41/202 57/56/203 56/55/204
f 45/2/205 44/14/206 55/54/207 58/57/208
f 46/3/209 45/2/210 58/57/211 59/58/212
f 37/41/213 38/42/214 60/59/215 57/56/216
f 38/42/217 39/45/218 61/60/219 60/59/220
f 47/6/221 46/3/222 59/58/223 62/61/224
f 48/7/225 47/6/226 62/61/227 63/62/228
f 39/45/229 40/46/230 64/63/231 61/60/232
f 40/46/233 33/32/234 50/94/235 64/63/236
f 41/85/237 48/7/238 63/62/239 49/48/240
g default
v -0.488064 0.087141 0.555277
v 0.488064 0.087141 0.555277
v -0.488064 0.087141 -0.555277
v 0.488064 0.087141 -0.555277
v -0.488064 0.160578 0.596356
v 0.488064 0.160578 0.596356
v 0.488064 0.160578 -0.596356
v -0.488064 0.160578 -0.596356
v -0.488064 0.058067 -0.481138
v 0.488064 0.058067 -0.481138
v 0.488064 0.160578 -0.481138
v -0.488064 0.160578 -0.481138
v -0.488064 0.058067 0.481138
v 0.488064 0.058067 0.481138
v 0.488064 0.160578 0.481138
v -0.488064 0.160578 0.481138
v -0.488064 0.530521 0.596356
v 0.488064 0.530521 0.596356
v 0.488064 0.530521 0.481138
v -0.488064 0.530521 0.481138
v 0.488064 0.530521 -0.481138
v -0.488064 0.530521 -0.481138
v 0.488064 0.530521 -0.596357
v -0.488064 0.530521 -0.596357
vt 0.642863 0.465448
vt 0.460141 0.465448
vt 0.460141 0.435371
vt 0.642863 0.435371
vt 0.642863 0.559728
vt 0.642863 0.579081
vt 0.460141 0.579081
vt 0.460141 0.559728
vt 0.642863 0.830279
vt 0.460141 0.830279
vt 0.460141 0.549004
vt 0.642863 0.549004
vt 0.642863 0.849632
vt 0.460141 0.849632
vt 0.642863 0.860356
vt 0.460141 0.860356
vt 0.921082 0.162034
vt 0.897305 0.170101
vt 0.897304 0.141656
vt 0.934256 0.141656
vt 0.588691 0.170101
vt 0.588691 0.141656
vt 0.897304 0.039001
vt 0.934256 0.039001
vt 0.564913 0.162034
vt 0.551739 0.141656
vt 0.551739 0.039001
vt 0.588691 0.039001
vt 0.588691 0.141374
vt 0.588691 0.169820
vt 0.564913 0.161752
vt 0.551739 0.141374
vt 0.897304 0.141374
vt 0.897305 0.169820
vt 0.551739 0.038719
vt 0.588691 0.038719
vt 0.921082 0.161752
vt 0.934256 0.141374
vt 0.897304 0.038719
vt 0.934256 0.038719
vt 0.642863 0.973989
vt 0.460141 0.973989
vt 0.460141 0.943912
vt 0.642863 0.943912
vt 0.796751 0.045182
vt 0.796752 0.131546
vt 0.683772 0.131546
vt 0.683772 0.045182
vt 0.845580 0.131547
vt 0.845579 0.045182
vt 0.634944 0.131546
vt 0.634944 0.045182
vn 0.000000 1.000000 0.000000
vn 0.000000 1.000000 0.000000
vn 0.000000 1.000000 0.000000
vn 0.000000 1.000000 0.000000
vn 0.000000 -0.930973 0.365088
vn 0.000000 -0.999607 0.028042
vn 0.000000 -0.999607 0.028042
vn 0.000000 -0.930973 0.365088
vn 0.000000 -0.488192 0.872736
vn 0.000000 -0.488192 0.872736
vn 0.000000 -0.488192 0.872736
vn 0.000000 -0.488192 0.872736
vn 1.000000 0.000000 0.000000
vn 1.000000 0.000000 0.000000
vn 1.000000 0.000000 0.000000
vn 1.000000 0.000000 0.000000
vn 0.000000 -0.488193 -0.872736
vn 0.000000 -0.488193 -0.872736
vn 0.000000 -0.488193 -0.872736
vn 0.000000 -0.488193 -0.872736
vn -1.000000 0.000000 0.000000
vn -1.000000 0.000000 0.000000
vn -1.000000 0.000000 0.000000
vn -1.000000 0.000000 0.000000
vn 0.000000 -0.999607 -0.028042
vn 0.000000 -0.930973 -0.365088
vn 0.000000 -0.930973 -0.365088
vn 0.000000 -0.999607 -0.028042
vn 1.000000 0.000000 0.000000
vn 1.000000 0.000000 0.000000
vn 1.000000 0.000000 0.000000
vn 1.000000 0.000000 0.000000
vn 0.000000 1.000000 0.000000
vn 0.000000 1.000000 0.000000
vn 0.000000 1.000000 0.000000
vn 0.000000 1.000000 0.000000
vn -1.000000 0.000000 0.000000
vn -1.000000 0.000000 0.000000
vn -1.000000 0.000000 0.000000
vn -1.000000 0.000000 0.000000
vn 0.000000 1.000000 0.000000
vn 0.000000 1.000000 0.000000
vn 0.000000 1.000000 0.000000
vn 0.000000 1.000000 0.000000
vn 0.000000 0.000000 1.000000
vn 0.000000 0.000000 1.000000
vn 0.000000 0.000000 1.000000
vn 0.000000 0.000000 1.000000
vn 1.000000 0.000000 0.000000
vn 1.000000 0.000000 0.000000
vn 1.000000 0.000000 0.000000
vn 1.000000 0.000000 0.000000
vn 0.000000 -0.000000 -1.000000
vn 0.000000 -0.000000 -1.000000
vn 0.000000 -0.000000 -1.000000
vn 0.000000 -0.000000 -1.000000
vn -1.000000 -0.000000 0.000000
vn -1.000000 -0.000000 0.000000
vn -1.000000 -0.000000 0.000000
vn -1.000000 -0.000000 0.000000
vn 0.000000 0.000000 1.000000
vn 0.000000 0.000000 1.000000
vn 0.000000 0.000000 1.000000
vn 0.000000 0.000000 1.000000
vn 1.000000 0.000000 0.000000
vn 1.000000 0.000000 0.000000
vn 1.000000 0.000000 0.000000
vn 1.000000 0.000000 0.000000
vn 0.000000 -0.000000 -1.000000
vn 0.000000 -0.000000 -1.000000
vn 0.000000 -0.000000 -1.000000
vn 0.000000 -0.000000 -1.000000
vn -1.000000 -0.000000 0.000000
vn -1.000000 -0.000000 0.000000
vn -1.000000 -0.000000 0.000000
vn -1.000000 -0.000000 0.000000
s off
g medkit_main medkit_latch
usemtl lambert2SG
f 81/96/241 82/97/242 83/98/243 84/99/244
s 1
f 65/100/245 77/101/246 78/102/247 66/103/248
s off
f 65/100/249 66/103/250 70/106/251 69/107/252
s 2
f 66/112/253 78/113/254 79/114/255 70/115/256
s off
f 68/109/257 67/108/258 72/110/259 71/111/260
s 3
f 80/124/261 77/125/262 65/126/263 69/127/264
s 1
f 73/104/265 67/108/266 68/109/267 74/105/268
s 2
f 75/117/269 74/116/270 68/120/271 71/121/272
s off
f 86/136/273 85/137/274 87/138/275 88/139/276
s 3
f 67/132/277 73/129/278 76/128/279 72/133/280
s 1
f 77/101/246 73/104/265 74/105/268 78/102/247
s 2
f 79/114/255 78/113/254 74/116/270 75/117/269
s off
f 80/140/281 79/141/282 75/142/283 76/143/284
s 3
f 76/128/279 73/129/278 77/125/262 80/124/261
s off
f 69/107/285 70/106/286 82/97/287 81/96/288
f 70/115/289 79/114/290 83/118/291 82/119/292
f 79/141/293 80/140/294 84/145/295 83/144/296
f 80/124/297 69/127/298 81/130/299 84/131/300
f 76/143/301 75/142/302 85/146/303 86/147/304
f 75/117/305 71/121/306 87/122/307 85/123/308
f 71/111/309 72/110/310 88/139/311 87/138/312
f 72/133/313 76/128/314 86/134/315 88/135/316
